<svg width="59" height="89" viewBox="0 0 59 89" fill="none" xmlns="http://www.w3.org/2000/svg">
<path d="M44.8376 21.8667L45.4712 17.3746C46.7089 16.6115 47.8543 15.7807 48.907 14.883C49.959 13.9853 50.8325 12.9963 51.526 11.9156C52.2197 10.8353 52.6562 9.65788 52.8356 8.3846C52.9752 7.39422 52.8598 6.59037 52.4901 5.97305C52.1201 5.35619 51.511 4.98727 50.6619 4.86744C49.907 4.76095 49.2817 4.88906 48.786 5.25223C48.2894 5.61517 47.9902 6.16234 47.8872 6.89328C47.8405 7.22356 47.8329 7.53498 47.8637 7.82777C47.8945 8.12079 47.9336 8.43911 47.9817 8.7825L43.461 9.11899C43.3621 8.62426 43.3042 8.1408 43.2867 7.66953C43.2685 7.19803 43.2934 6.72699 43.3598 6.25503C43.6393 4.27404 44.4687 2.78019 45.8498 1.7721C47.2303 0.764701 49.0528 0.420162 51.3165 0.739402C53.6273 1.06531 55.3313 1.94322 56.4284 3.37244C57.5255 4.80212 57.911 6.67202 57.5851 8.98283C57.3724 10.4921 56.9108 11.8459 56.2005 13.0442C55.4905 14.2429 54.5735 15.3283 53.4509 16.2998C52.3273 17.272 51.0579 18.1752 49.6416 19.0095L49.1529 22.4758L44.8376 21.8667ZM43.623 29.1989L44.2865 24.4945L49.0261 25.1629L48.3626 29.8673L43.623 29.1989Z" stroke="#263238" stroke-miterlimit="10"/>
<path d="M19.51 41.2764C19.51 41.2764 4.74491 41.4733 4.28537 42.5233C3.82606 43.5732 1.72616 56.3042 1.59483 60.7009C1.4635 65.0975 1.39795 67.985 1.85726 68.51C2.31657 69.0351 9.46957 73.1694 9.46957 73.1694C9.46957 73.1694 6.12284 84.9159 7.17279 85.3097C8.22274 85.7035 14.6538 87.3441 18.788 87.4096C22.9223 87.4752 26.991 87.4752 27.3189 87.4752C27.6472 87.4752 38.2124 87.8689 41.8871 87.0158C45.5621 86.1628 46.6776 86.097 46.6776 84.6535C46.6776 83.2098 45.759 81.4379 45.6932 81.1099C45.6276 80.7817 48.1868 55.9106 46.7431 49.8078C45.2994 43.705 43.3964 41.3424 41.9527 40.9487C40.509 40.5549 30.2061 40.8174 30.2061 40.8174L19.51 41.2764Z" fill="#92E3A9" stroke="#263238" stroke-miterlimit="10" stroke-linecap="round" stroke-linejoin="round"/>
<path d="M27.3739 46.5568C26.8884 46.8388 26.3757 47.1001 25.8382 47.3289" stroke="#263238" stroke-miterlimit="10" stroke-linecap="round" stroke-linejoin="round"/>
<path d="M32.8456 41.5957C32.8456 41.5957 31.0528 44.1793 28.0681 46.1287" stroke="#263238" stroke-miterlimit="10" stroke-linecap="round" stroke-linejoin="round"/>
<path d="M31.9695 44.2234C31.9695 44.2234 30.616 46.1345 29.4214 46.7716" stroke="#263238" stroke-miterlimit="10" stroke-linecap="round" stroke-linejoin="round"/>
<path d="M22.5874 65.2487L22.2005 64.0476" stroke="#263238" stroke-miterlimit="10" stroke-linecap="round" stroke-linejoin="round"/>
<path d="M24.6942 71.7912L22.9837 66.4789" stroke="#263238" stroke-miterlimit="10" stroke-linecap="round" stroke-linejoin="round"/>
<path d="M25.2193 71.9223L26.9254 69.2318" stroke="#263238" stroke-miterlimit="10" stroke-linecap="round" stroke-linejoin="round"/>
<path d="M29.0911 70.3475L33.2254 65.6882" stroke="#263238" stroke-miterlimit="10" stroke-linecap="round" stroke-linejoin="round"/>
<path d="M18.4207 84.8817L27.3192 87.4749" stroke="#263238" stroke-miterlimit="10" stroke-linecap="round" stroke-linejoin="round"/>
<path d="M15.8353 84.1282L17.3632 84.5735" stroke="#263238" stroke-miterlimit="10" stroke-linecap="round" stroke-linejoin="round"/>
<path d="M19.4184 12.0906C19.4184 12.0906 14.7816 11.0255 13.9044 12.2159C13.0272 13.4064 14.7816 14.5343 14.5309 14.785C14.2802 15.0357 8.89158 17.7927 9.33019 20.487C9.7688 23.1814 13.403 25.9384 13.5284 26.6903C13.6537 27.4422 9.33019 27.6929 8.76623 28.8208C8.20227 29.9487 7.38784 35.2746 12.0872 37.029C16.7866 38.7835 22.6766 35.8385 24.3057 35.8385C25.9348 35.8385 27.5639 39.0342 29.4437 38.8463C31.3235 38.6583 32.3886 37.2797 32.3886 37.2797C32.3886 37.2797 34.331 39.9739 37.1508 38.8463C39.9703 37.7183 43.2287 33.7708 41.8501 32.5804C40.4717 31.3899 38.9052 31.0138 39.9078 29.9487C40.9103 28.8836 42.978 26.0638 42.6648 23.62C42.3515 21.1763 39.4692 20.9884 38.3412 20.2365C37.2133 19.4846 39.5945 18.2314 39.5317 16.1637C39.4692 14.096 37.9652 10.6496 30.3209 8.33124C22.6764 6.01284 18.9168 7.14075 18.541 9.0831C18.1652 11.0255 19.4184 12.0906 19.4184 12.0906Z" fill="#263238" stroke="#263238" stroke-miterlimit="10" stroke-linecap="round" stroke-linejoin="round"/>
<path d="M20.2517 32.1944C20.2517 32.1944 18.6852 41.9692 18.6226 42.2824C18.5601 42.5957 21.3797 45.4155 25.2018 44.9141C29.0239 44.4129 30.9665 41.8438 30.9665 41.8438L29.776 32.1316C29.776 32.1316 26.5179 33.6982 24.5127 33.6354C22.5076 33.5728 20.2517 32.1944 20.2517 32.1944Z" fill="white" stroke="#263238" stroke-miterlimit="10" stroke-linecap="round" stroke-linejoin="round"/>
<path d="M19.6089 37.4387L26.206 36.1619L20.2517 32.1944L19.6089 37.4387Z" fill="#263238" stroke="#263238" stroke-miterlimit="10" stroke-linecap="round" stroke-linejoin="round"/>
<path d="M16.7695 23.5763C16.7695 23.5763 15.6658 22.1782 15.1506 23.9443C14.6354 25.7105 16.8431 27.8444 16.8431 27.8444L16.7695 23.5763Z" fill="white" stroke="#263238" stroke-miterlimit="10" stroke-linecap="round" stroke-linejoin="round"/>
<path d="M32.5864 23.5763C32.5864 23.5763 33.6902 22.1782 34.2054 23.9443C34.7206 25.7105 32.5128 27.8444 32.5128 27.8444L32.5864 23.5763Z" fill="white" stroke="#263238" stroke-miterlimit="10" stroke-linecap="round" stroke-linejoin="round"/>
<path d="M20.2382 14.7399C20.2382 14.7399 17.0784 17.8081 16.6203 18.724C16.1623 19.6399 16.3454 30.1269 16.8491 31.1343C17.3528 32.1417 22.3903 36.0803 23.2146 36.4007C24.0389 36.7213 25.9164 37.0417 27.382 36.3091C28.8475 35.5766 32.3737 31.8214 32.74 30.8595C33.1064 29.8979 32.6485 18.9071 32.4194 17.8539C32.1903 16.8007 26.6494 13.0455 24.3138 12.8622C21.9783 12.6791 20.2382 14.7399 20.2382 14.7399Z" fill="white" stroke="#263238" stroke-miterlimit="10" stroke-linecap="round" stroke-linejoin="round"/>
<path d="M22.7226 12.8636C22.7226 12.8636 27.456 17.1819 30.8607 17.3479C34.2654 17.514 34.2654 17.514 34.2654 17.514C34.2654 17.514 26.7916 16.5174 24.4665 11.4519C24.4665 11.4519 21.8923 9.29287 22.7226 12.8636Z" fill="#263238" stroke="#263238" stroke-miterlimit="10" stroke-linecap="round" stroke-linejoin="round"/>
<path d="M25.3672 21.4261L25.7336 26.0511" stroke="#263238" stroke-miterlimit="10" stroke-linecap="round" stroke-linejoin="round"/>
<path d="M26.0999 27.013C26.0999 27.013 25.2756 28.2495 24.6804 28.2495C24.0851 28.2495 23.4897 27.5625 23.4897 27.5625" stroke="#263238" stroke-miterlimit="10" stroke-linecap="round" stroke-linejoin="round"/>
<path d="M21.1083 28.5241C21.1083 28.5241 22.1614 30.2643 23.5354 30.3558C24.9092 30.4473 26.3748 30.0352 26.3748 30.0352" stroke="#263238" stroke-miterlimit="10" stroke-linecap="round" stroke-linejoin="round"/>
<path d="M25.9169 20.6933C25.9169 20.6933 27.5197 19.5026 28.1607 19.0904C28.8018 18.6782 30.8626 19.4568 30.8626 19.4568C30.8626 19.4568 29.3055 18.5867 28.4814 18.4494C27.657 18.3121 25.9626 19.5026 25.8253 20.0523C25.6878 20.6017 25.2756 20.4642 25.9169 20.6933Z" fill="#263238" stroke="#263238" stroke-miterlimit="10" stroke-linecap="round" stroke-linejoin="round"/>
<path d="M22.6196 20.9127C22.6196 20.9127 22.3907 20.2717 21.6122 20.2257C20.8336 20.1799 17.399 21.0958 17.9943 21.0958C18.5895 21.0958 21.0625 21.05 21.7037 21.05C22.3447 21.05 22.6196 20.9127 22.6196 20.9127Z" fill="#263238" stroke="#263238" stroke-miterlimit="10" stroke-linecap="round" stroke-linejoin="round"/>
<path d="M30.4962 23.5324C30.4962 23.5324 29.3055 23.8073 28.3896 23.7615C27.4737 23.7157 26.6494 23.4409 27.0158 23.853C27.3822 24.2652 28.115 24.6316 29.2597 24.4025C30.4046 24.1736 30.8168 23.9446 30.4962 23.5324Z" fill="#263238"/>
<path d="M22.2074 23.5324C22.2074 23.5324 21.0167 23.8073 20.1009 23.7615C19.185 23.7157 18.3607 23.4409 18.7271 23.853C19.0935 24.2652 19.8262 24.6316 20.9709 24.4025C22.1159 24.1736 22.5281 23.9446 22.2074 23.5324Z" fill="#263238"/>
<path d="M6.96809 49.927C6.96809 49.927 8.34648 42.3452 8.97323 41.5934C9.59975 40.8415 16.4296 35.2649 16.8056 34.8889C17.1817 34.5128 19.8759 30.44 20.0013 30.9414C20.1266 31.4428 19.688 33.6358 18.8733 34.8263C18.0587 36.0168 16.931 37.458 16.931 37.458C16.931 37.458 21.1292 38.5231 21.3799 38.7738C21.6306 39.0245 23.0573 42.1447 23.1343 42.5334C23.2673 43.2043 23.075 43.9246 22.5078 43.9746C21.9931 44.0199 18.6229 42.2827 18.6229 42.2827L15.9287 42.6587C15.9287 42.6587 13.9863 45.0397 12.6702 45.4783C11.3544 45.9169 10.8532 45.9797 10.8532 45.9797L10.916 50.6165L6.96809 49.927Z" fill="white" stroke="#263238" stroke-miterlimit="10" stroke-linecap="round" stroke-linejoin="round"/>
<path d="M17.1334 38.8888C17.1334 38.8888 20.7918 39.3796 21.0146 39.5581C21.2377 39.7366 23.1341 42.5331 23.1341 42.5331" stroke="#263238" stroke-miterlimit="10" stroke-linecap="round" stroke-linejoin="round"/>
<path d="M17.3832 40.5554C17.3832 40.5554 21.0149 41.3873 21.2826 41.6104C21.5503 41.8335 22.9779 43.4842 22.9779 43.4842" stroke="#263238" stroke-miterlimit="10" stroke-linecap="round" stroke-linejoin="round"/>
<path d="M23.0536 72.513C23.0536 72.513 18.1318 71.5941 17.9349 71.5286C17.7381 71.463 14.26 70.4131 13.8007 70.2162C13.3414 70.0193 7.76343 69.0349 7.501 69.4287C7.23857 69.8224 6.97591 72.1192 6.91036 72.3161C6.84481 72.513 6.31972 73.4316 6.45105 73.9567C6.58238 74.4818 6.45105 75.4004 6.45105 75.4004C6.45105 75.4004 6.3855 78.4847 7.17302 78.5502C7.96054 78.6158 8.68228 75.6628 8.68228 75.6628C8.68228 75.6628 9.79778 76.319 12.0948 76.4503C14.3918 76.5817 16.6228 75.4659 16.6228 75.4659L22.7258 76.9096L23.0536 72.513Z" fill="white" stroke="#263238" stroke-miterlimit="10" stroke-linecap="round" stroke-linejoin="round"/>
<path d="M6.03107 48.5884L12.6376 49.7954L12.3834 53.9244C12.3834 53.9244 13.8444 54.6231 14.2892 58.6886C14.7338 62.7541 16.0043 72.1965 15.6867 72.8952C15.3691 73.594 13.3998 76.6431 8.82603 76.8338C4.25225 77.0244 1.77492 72.8318 1.3301 71.4978C0.885508 70.1638 3.23588 61.4203 3.36284 60.6579C3.4898 59.8954 4.12506 54.6866 4.69684 53.7972C5.26862 52.9078 5.96736 52.3362 5.96736 52.3362L6.03107 48.5884Z" fill="#92E3A9" stroke="#263238" stroke-miterlimit="10" stroke-linecap="round" stroke-linejoin="round"/>
<path d="M10.1368 53.3459C10.5122 53.3899 10.8845 53.4161 11.2401 53.4161" stroke="#263238" stroke-miterlimit="10" stroke-linecap="round" stroke-linejoin="round"/>
<path d="M5.96759 52.3362C5.96759 52.3362 7.14772 52.7631 8.59258 53.0803" stroke="#263238" stroke-miterlimit="10" stroke-linecap="round" stroke-linejoin="round"/>
<path d="M42.3469 50.6604L41.6907 67.5912C41.6907 67.5912 40.969 67.6567 40.7063 67.985C40.4439 68.3132 40.247 68.7069 40.247 68.7069C40.247 68.7069 33.6191 68.9694 30.4693 69.8882C27.3194 70.8068 25.2195 71.9226 25.2195 71.9226L22.3321 71.857L21.7414 79.4693L25.6133 79.6006C25.6133 79.6006 27.5163 80.7161 36.1785 81.5037C44.8408 82.2912 48.8437 82.4881 49.7626 81.4381C50.6814 80.3882 51.075 78.7476 51.2063 77.8945C51.3376 77.0414 52.9124 71.7914 52.9124 64.1794C52.9124 56.5671 45.7594 45.5425 44.1846 43.0488C42.6096 40.5552 40.969 40.752 39.8535 41.0145" fill="#92E3A9"/>
<path d="M42.3469 50.6604L41.6907 67.5912C41.6907 67.5912 40.969 67.6567 40.7063 67.985C40.4439 68.3132 40.247 68.7069 40.247 68.7069C40.247 68.7069 33.6191 68.9694 30.4693 69.8882C27.3194 70.8068 25.2195 71.9226 25.2195 71.9226L22.3321 71.857L21.7414 79.4693L25.6133 79.6006C25.6133 79.6006 27.5163 80.7161 36.1785 81.5037C44.8408 82.2912 48.8437 82.4881 49.7626 81.4381C50.6814 80.3882 51.075 78.7476 51.2063 77.8945C51.3376 77.0414 52.9124 71.7914 52.9124 64.1794C52.9124 56.5671 45.7594 45.5425 44.1846 43.0488C42.6096 40.5552 40.969 40.752 39.8535 41.0145" stroke="#263238" stroke-miterlimit="10" stroke-linecap="round" stroke-linejoin="round"/>
<path d="M45.7173 66.4235L41.6905 67.5912L45.4968 64.0476" stroke="#263238" stroke-miterlimit="10" stroke-linecap="round" stroke-linejoin="round"/>
<path d="M48.2529 65.6882L46.9793 66.0576" stroke="#263238" stroke-miterlimit="10" stroke-linecap="round" stroke-linejoin="round"/>
<path d="M40.2468 68.7069C40.2468 68.7069 44.4466 69.0349 46.153 69.6913" stroke="#263238" stroke-miterlimit="10" stroke-linecap="round" stroke-linejoin="round"/>
<path d="M46.7641 72.4458C46.9609 72.6512 47.1521 72.8702 47.334 73.1036" stroke="#263238" stroke-miterlimit="10" stroke-linecap="round" stroke-linejoin="round"/>
<path d="M41.9532 69.6255C41.9532 69.6255 44.0485 70.1283 45.9621 71.7036" stroke="#263238" stroke-miterlimit="10" stroke-linecap="round" stroke-linejoin="round"/>
<path d="M25.1537 72.6443L25.2193 79.0098" stroke="#263238" stroke-miterlimit="10" stroke-linecap="round" stroke-linejoin="round"/>
<path d="M22.0036 77.4347H24.76" stroke="#263238" stroke-miterlimit="10" stroke-linecap="round" stroke-linejoin="round"/>
<path d="M22.6598 73.6942L23.7756 73.6285" stroke="#263238" stroke-miterlimit="10" stroke-linecap="round" stroke-linejoin="round"/>
</svg>
