<svg width="113" height="113" viewBox="0 0 113 113" fill="none" xmlns="http://www.w3.org/2000/svg">
<g clip-path="url(#clip0_51_21)">
<path d="M56.5 113C87.7041 113 113 87.7041 113 56.5C113 25.2959 87.7041 0 56.5 0C25.2959 0 0 25.2959 0 56.5C0 87.7041 25.2959 113 56.5 113Z" fill="#77B3D4"/>
<g opacity="0.2">
<path d="M21.1875 44.1406V88.2812C21.1875 92.1656 24.3656 95.3438 28.25 95.3438H84.75C88.6344 95.3438 91.8125 92.1656 91.8125 88.2812V44.1406H21.1875Z" fill="#231F20"/>
</g>
<path d="M21.1875 40.6094V84.75C21.1875 88.6344 24.3656 91.8125 28.25 91.8125H84.75C88.6344 91.8125 91.8125 88.6344 91.8125 84.75V40.6094H21.1875Z" fill="white"/>
<g opacity="0.2">
<path d="M84.75 24.7188H28.25C24.3656 24.7188 21.1875 27.8969 21.1875 31.7812V44.1406H91.8125V31.7812C91.8125 27.8969 88.6344 24.7188 84.75 24.7188Z" fill="#231F20"/>
</g>
<path d="M84.75 21.1875H28.25C24.3656 21.1875 21.1875 24.3656 21.1875 28.25V40.6094H91.8125V28.25C91.8125 24.3656 88.6344 21.1875 84.75 21.1875Z" fill="#C75C5C"/>
<path d="M56.5 84.75C54.5578 84.75 52.9688 83.1609 52.9688 81.2188C52.9688 71.5078 56.1469 64.4453 59.1484 60.0312H47.6719C45.7297 60.0312 44.1406 58.4422 44.1406 56.5C44.1406 54.5578 45.7297 52.9688 47.6719 52.9688H67.0938C68.6828 52.9688 69.9188 54.0281 70.4484 55.4406C70.9781 56.8531 70.4484 58.4422 69.2125 59.325C68.8594 59.6781 60.0312 66.2109 60.0312 81.2188C60.0312 83.1609 58.4422 84.75 56.5 84.75Z" fill="#4F5D73"/>
<g opacity="0.2">
<path d="M35.3125 37.0781C33.3703 37.0781 31.7812 35.4891 31.7812 33.5469V21.1875C31.7812 19.2453 33.3703 17.6562 35.3125 17.6562C37.2547 17.6562 38.8438 19.2453 38.8438 21.1875V33.5469C38.8438 35.4891 37.2547 37.0781 35.3125 37.0781Z" fill="#231F20"/>
</g>
<g opacity="0.2">
<path d="M79.4531 37.0781C77.5109 37.0781 75.9219 35.4891 75.9219 33.5469V21.1875C75.9219 19.2453 77.5109 17.6562 79.4531 17.6562C81.3953 17.6562 82.9844 19.2453 82.9844 21.1875V33.5469C82.9844 35.4891 81.3953 37.0781 79.4531 37.0781Z" fill="#231F20"/>
</g>
<path d="M35.3125 33.5469C33.3703 33.5469 31.7812 31.9578 31.7812 30.0156V17.6562C31.7812 15.7141 33.3703 14.125 35.3125 14.125C37.2547 14.125 38.8438 15.7141 38.8438 17.6562V30.0156C38.8438 31.9578 37.2547 33.5469 35.3125 33.5469Z" fill="#E0E0D1"/>
<path d="M79.4531 33.5469C77.5109 33.5469 75.9219 31.9578 75.9219 30.0156V17.6562C75.9219 15.7141 77.5109 14.125 79.4531 14.125C81.3953 14.125 82.9844 15.7141 82.9844 17.6562V30.0156C82.9844 31.9578 81.3953 33.5469 79.4531 33.5469Z" fill="#E0E0D1"/>
</g>
<defs>
<clipPath id="clip0_51_21">
<rect width="113" height="113" fill="white"/>
</clipPath>
</defs>
</svg>
